<?xml version="1.0" encoding="utf-8"?>
<!-- Generator: Adobe Illustrator 16.0.0, SVG Export Plug-In . SVG Version: 6.00 Build 0)  -->
<!DOCTYPE svg PUBLIC "-//W3C//DTD SVG 1.1//EN" "http://www.w3.org/Graphics/SVG/1.1/DTD/svg11.dtd">
<svg version="1.1" id="Capa_1" xmlns="http://www.w3.org/2000/svg" xmlns:xlink="http://www.w3.org/1999/xlink" x="0px" y="0px"
	 width="960px" height="560px" viewBox="0 0 960 560" enable-background="new 0 0 960 560" xml:space="preserve">
<g>
	<g>
		<path fill="#1ABA5B" d="M200,412.927v102.862C200,540.165,219.835,560,244.211,560C528.602,560,760,328.602,760,44.211
			C760,19.836,740.164,0,715.789,0H612.631c-24.375,0-44.211,19.836-44.211,44.211c0,34.484-5.422,68.35-16.092,100.623
			c-5.04,16.121-0.825,33.334,10.935,45.095L609.979,252c-38.403,72.417-85.09,119.074-158.037,158.009l-63.574-48.013
			c-10.286-10.493-28.059-14.648-43.709-9.255c-32.068,10.581-65.903,15.975-100.446,15.975
			C219.835,368.716,200,388.552,200,412.927z"/>
	</g>
</g>
</svg>
