<?xml version="1.0" encoding="utf-8"?>
<!-- Generator: Adobe Illustrator 16.0.0, SVG Export Plug-In . SVG Version: 6.00 Build 0)  -->
<!DOCTYPE svg PUBLIC "-//W3C//DTD SVG 1.1//EN" "http://www.w3.org/Graphics/SVG/1.1/DTD/svg11.dtd">
<svg version="1.1" id="Capa_1" xmlns="http://www.w3.org/2000/svg" xmlns:xlink="http://www.w3.org/1999/xlink" x="0px" y="0px"
	 width="640px" height="480px" viewBox="0 0 640 480" enable-background="new 0 0 640 480" xml:space="preserve">
<g>
	<g>
		<path fill="#1ABA5B" d="M478.791,83.721C443.628,30.14,385.582,0,320.279,0c-64.745,0-122.791,30.14-159.07,83.721
			c-36.279,52.465-44.651,119.442-22.326,178.047c6.14,15.628,15.628,31.814,27.907,46.325L308,474.419
			c3.349,3.349,6.698,5.581,11.721,5.581c5.023,0,8.372-2.232,11.721-5.581l141.768-166.326
			c12.279-14.511,22.326-30.14,27.907-46.325C523.441,203.163,515.069,136.186,478.791,83.721z M320.279,281.303
			c-48,0-87.628-39.629-87.628-87.628c0-48,39.628-87.628,87.628-87.628s87.628,39.628,87.628,87.628
			C407.907,241.674,368.838,281.303,320.279,281.303z"/>
	</g>
</g>
</svg>
